<?xml version="1.0" standalone="no"?>
<!DOCTYPE svg PUBLIC "-//W3C//DTD SVG 20010904//EN"
 "http://www.w3.org/TR/2001/REC-SVG-20010904/DTD/svg10.dtd">
<svg version="1.0" xmlns="http://www.w3.org/2000/svg"
 width="14058.000000pt" height="1969.000000pt" viewBox="0 0 14058.000000 1969.000000"
 preserveAspectRatio="xMidYMid meet">
<metadata>
Created by potrace 1.15, written by Peter Selinger 2001-2017
</metadata>
<g transform="translate(0.000000,1969.000000) scale(0.100000,-0.100000)"
fill="#000000" stroke="none">
<path d="M7551 19668 c-690 -1786 -7551 -19611 -7551 -19618 0 -7 1075 -10
3219 -10 l3219 0 79 243 c43 133 335 1028 648 1989 l570 1748 3475 -3 3474 -2
660 -1987 c629 -1893 661 -1988 684 -1988 19 0 22 -4 17 -20 -6 -20 -2 -20
3242 -20 l3248 0 139 353 c1273 3233 6807 17440 7411 19027 52 135 97 253 100
263 7 16 -151 17 -3227 17 l-3234 0 -2223 -5687 c-1223 -3129 -2226 -5691
-2230 -5695 -3 -3 -991 2563 -2196 5703 l-2190 5709 -3663 0 -3662 0 -9 -22z
m4719 -8263 l1025 -3140 -2069 -3 c-1138 -1 -2071 0 -2073 2 -2 1 466 1421
1039 3155 573 1734 1045 3146 1047 3139 3 -7 467 -1426 1031 -3153z"/>
<path d="M121340 9850 l0 -9840 4906 0 4905 0 297 30 c1701 173 2639 380 3602
793 1021 438 1905 940 2500 1421 579 467 1164 1148 1570 1826 67 112 319 595
402 770 478 1010 795 2161 953 3450 168 1378 129 2884 -106 4175 -185 1013
-469 1864 -934 2800 -285 573 -522 942 -861 1339 -66 76 -155 185 -199 241
-178 227 -321 374 -545 560 -53 44 -173 147 -266 229 -510 449 -854 687 -1376
951 -1178 597 -2562 913 -4543 1040 -824 53 -425 49 -5552 52 l-4753 3 0
-9840z m9490 5270 c989 -47 1878 -255 2510 -587 575 -302 1057 -756 1385
-1304 95 -160 214 -399 253 -509 17 -47 55 -146 85 -220 256 -628 403 -1277
447 -1970 13 -209 13 -814 0 -1030 -43 -703 -151 -1294 -344 -1875 -332 -997
-873 -1774 -1546 -2222 -517 -344 -1179 -570 -1940 -662 -47 -6 -191 -18 -320
-26 -129 -9 -341 -23 -470 -32 -206 -15 -494 -17 -2352 -20 l-2118 -3 0 5235
0 5235 2098 0 c1263 0 2182 -4 2312 -10z"/>
<path d="M99990 9850 l0 -9830 2880 0 2880 0 0 5418 c0 3612 -4 5464 -10 5557
-14 189 -35 358 -65 517 -13 73 -23 133 -22 134 3 3 208 -299 351 -517 209
-321 566 -802 901 -1214 71 -88 233 -295 360 -460 293 -384 618 -800 1166
-1495 241 -305 675 -868 965 -1250 1021 -1346 1524 -1995 2133 -2754 215 -269
476 -599 578 -735 178 -235 461 -596 671 -857 53 -67 158 -204 233 -305 75
-101 255 -335 399 -519 145 -184 371 -479 503 -655 260 -345 389 -513 560
-727 l110 -138 2894 0 2893 0 0 9830 0 9830 -2850 0 -2850 0 -2 -5710 -3
-5710 -65 108 c-157 261 -407 616 -709 1007 -361 468 -487 634 -666 880 -381
522 -742 995 -1355 1775 -180 228 -612 789 -961 1245 -349 457 -735 958 -858
1115 -541 691 -1528 1960 -1760 2263 -601 785 -798 1039 -1024 1321 -240 301
-493 634 -707 931 -102 141 -342 455 -530 692 l-65 82 -2987 0 -2988 1 0
-9830z"/>
<path d="M79110 14093 c0 -3359 4 -5721 10 -5938 36 -1315 115 -1980 322
-2690 58 -201 299 -903 370 -1080 258 -643 629 -1176 1263 -1811 250 -250 419
-404 640 -580 1203 -960 2911 -1599 4985 -1864 741 -94 1299 -125 2119 -117
996 10 1582 41 2336 122 2780 300 4743 1117 6039 2514 748 807 1201 1666 1485
2816 122 498 183 896 256 1665 59 636 55 145 55 6610 l0 5930 -2875 0 -2875 0
-3 -5312 c-3 -4871 -4 -5333 -20 -5558 -70 -1021 -132 -1364 -339 -1885 -405
-1019 -1273 -1750 -2412 -2031 -412 -101 -812 -146 -1316 -146 -740 -1 -1235
87 -1942 343 -400 145 -522 200 -703 319 -222 147 -413 301 -600 486 -199 196
-293 324 -488 659 -249 427 -388 875 -489 1575 l-22 155 -3 5698 -3 5697
-2895 0 -2895 0 0 -5577z"/>
<path d="M28790 9849 c-2109 -5396 -3836 -9819 -3838 -9830 -3 -19 39 -19
3241 -19 l3244 0 208 527 c1496 3801 7376 18906 7439 19111 l7 22 -3233 0
-3233 0 -3835 -9811z"/>
<path d="M66915 19640 c-1480 -66 -2740 -306 -3960 -755 -770 -283 -1601 -699
-2215 -1108 -630 -419 -1265 -992 -1826 -1647 -434 -507 -705 -868 -879 -1170
-43 -74 -118 -205 -167 -290 -112 -195 -302 -571 -403 -800 -448 -1011 -714
-2110 -796 -3285 -21 -290 -17 -1160 6 -1417 3 -29 12 -134 20 -233 77 -905
269 -1773 572 -2585 94 -250 189 -469 367 -843 330 -695 506 -980 891 -1447
64 -78 162 -201 217 -273 389 -508 920 -1042 1436 -1444 678 -528 1615 -1069
2472 -1425 1357 -565 2898 -838 4735 -838 1312 0 2578 165 3650 475 1398 405
2837 1179 3870 2084 292 256 810 782 1031 1046 588 706 1091 1549 1435 2406
615 1533 827 3165 638 4909 -119 1106 -440 2278 -869 3175 -142 299 -355 661
-654 1110 -285 429 -324 482 -709 949 -179 217 -562 600 -861 860 -1203 1047
-2635 1782 -4261 2187 -726 181 -1537 301 -2315 344 -63 4 -137 9 -165 11
-105 9 -1079 12 -1260 4z m705 -4520 c400 -23 872 -84 1116 -144 256 -64 389
-105 722 -225 329 -118 725 -344 1107 -631 330 -247 615 -551 893 -949 468
-669 784 -1503 911 -2406 47 -325 56 -473 56 -895 0 -479 -17 -716 -81 -1110
-128 -789 -447 -1602 -855 -2177 -213 -300 -523 -645 -754 -837 -346 -289
-638 -481 -953 -626 -570 -262 -1226 -428 -1982 -502 -204 -20 -756 -17 -945
5 -481 56 -867 137 -1260 264 -472 152 -942 381 -1296 629 -328 230 -646 530
-849 799 -270 359 -602 930 -723 1245 -263 683 -456 1769 -432 2425 25 707
132 1309 337 1904 189 550 474 1097 756 1455 373 475 895 887 1507 1191 516
255 1018 415 1615 514 429 71 749 91 1110 71z"/>
<path d="M46470 19590 c-1583 -53 -2826 -246 -3911 -610 -918 -308 -1703 -716
-2360 -1226 -613 -477 -1143 -1121 -1485 -1803 -317 -635 -434 -1127 -485
-2040 -15 -276 -7 -867 15 -1091 105 -1057 413 -1824 1013 -2527 120 -140 437
-454 578 -572 1023 -853 2477 -1411 4710 -1805 403 -72 1159 -192 1675 -267
624 -91 1898 -303 2285 -380 682 -137 1119 -287 1420 -487 244 -162 430 -413
510 -687 39 -137 48 -220 35 -332 -78 -648 -622 -1076 -1615 -1267 -322 -62
-608 -91 -1053 -108 -1224 -45 -2361 202 -3172 690 -679 408 -1063 910 -1356
1770 l-28 84 -66 -6 c-36 -3 -1296 -81 -2800 -172 -1504 -91 -2736 -167 -2737
-168 -2 -1 11 -34 27 -72 42 -101 95 -312 130 -519 91 -540 364 -1337 655
-1910 130 -256 229 -426 405 -691 205 -309 314 -447 564 -719 311 -337 383
-409 480 -478 54 -39 121 -91 150 -117 141 -129 669 -498 991 -693 162 -98
589 -309 840 -415 1203 -510 2657 -821 4295 -922 699 -43 1722 -40 2460 5
2329 145 4108 728 5430 1779 366 291 747 667 999 985 96 121 280 396 372 556
143 250 299 597 399 891 395 1155 452 2464 160 3652 -171 691 -458 1299 -839
1775 -177 221 -618 635 -906 852 -356 268 -631 439 -1020 635 -587 297 -1223
524 -2046 730 -820 206 -1404 302 -3671 605 -640 86 -1278 176 -1418 201 -750
132 -1167 245 -1496 404 -303 147 -482 339 -551 590 -27 98 -24 337 6 445 116
431 514 747 1201 954 312 94 715 162 1140 191 190 13 683 13 885 0 548 -36
1132 -141 1530 -277 71 -24 189 -74 260 -111 72 -36 171 -86 220 -110 50 -25
104 -57 121 -72 17 -15 73 -51 124 -80 106 -61 228 -172 363 -332 224 -264
341 -479 417 -768 13 -47 25 -88 29 -92 6 -7 5619 356 5626 364 2 2 0 22 -5
43 -5 22 -33 141 -61 265 -203 887 -445 1475 -883 2140 -371 563 -818 1058
-1346 1491 -215 176 -467 351 -777 537 -1201 724 -2708 1150 -4518 1278 -268
19 -1490 28 -1915 14z"/>
</g>
</svg>
